Patient4_TMGait_0pt2_03_right_06_EMG.mot
version=1
nRows=26
nColumns=33
inDegrees=no
endheader
time	1LAddLong	2LGlutMax	3LGlutMed	4LIliopsoas	5LSemiMemb	6LBicFemLong	7LRecFem	8LVastMed	9LVastLat	10LGasMed	11LTibAnt	12lTibPost	13LPeroneusLong	14LSol	15LExtDigLong	16LFlexDigLong	17RAddLong	18RGlutMax	19RGlutMed	20RIliopsoas	21RSemiMemb	22RBicFemLong	23RRecFem	24RVastMed	25RVastLat	26RGasMed	27RTibAnt	28RTibPost	29RPeroneusLong	30RSol	31RExtDigLong	32RFlexDigLong
14.21	0.007935	0.063629	0.097351	-0.013275	0.008545	-0.020599	0.074768	-0.001068	0.069885	-0.00473	-0.005951	-0.003662	0.024719	0.021362	-0.008392	-0.007782	-0.010071	0.13214	0.19974	-0.093994	0.16815	-0.004272	0.11826	-0.042419	0.016632	-0.007782	0.034027	0	0.14358	-0.069885	0.001373	-0.006561
14.211	0.001526	0.023804	0.01709	0.011597	-0.024719	-0.015259	0.092316	0.01358	0.067291	-0.002899	-0.010223	-0.001221	0.037537	-0.009308	-0.00473	0.00412	-0.013885	0.096588	0.45929	-0.12024	-0.16724	0.014343	-0.03067	-0.28763	0.29282	0.006409	-0.016174	-0.00061	0.2594	0.001984	-0.003052	0.005646
14.212	-0.017548	0.039368	0.11734	0.007935	0.009155	0.010834	0.039215	0.020905	0.014343	-0.007477	-0.005341	-0.008392	0.015564	0.011749	-0.010834	0.005035	0.001373	0.11826	0.09552	-0.11734	-0.2301	0.018311	0.007935	-0.36316	0.42282	0.004425	0.023499	-0.001068	0.24979	0.017395	-0.00473	0.004883
14.213	-0.023346	0.028381	0.15289	0.006409	0.03479	0.044708	0.005188	0.019226	-0.085754	0.009308	-0.007172	0.002441	0.024567	-0.007629	-0.006714	-0.001373	0.012817	0.046082	0.39932	-0.077515	-0.21713	0.065155	0.045166	-0.37277	0.33341	-0.005493	0.065765	-0.000458	0.20462	0.026093	-0.000305	-0.003357
14.214	-0.032043	-0.003815	0.23254	0.009918	-0.010071	0.050964	-0.005035	0.030975	-0.17425	0.021667	0.003815	0.007477	0.02594	0.007629	-0.00473	0.002289	0.008392	0.034485	0.11017	-0.006256	0.001526	0.059052	-0.14832	-0.29114	-0.000916	-0.005188	0.034485	-0.00885	0.21515	0.020294	-0.00412	-0.001678
14.215	-0.042114	0.009613	0.12024	0.006104	-0.013123	0.028992	-0.037231	0.026855	-0.22369	0.007172	-0.002594	-0.016785	0.015564	0.015411	-0.004272	0.00351	0.019073	0.033112	-0.40619	0.028839	0.3125	0.070953	-0.18768	0.045319	-0.16403	-0.011444	0.16373	-0.001526	0.13199	0.019684	-0.008545	-0.007172
14.216	-0.035553	0.014343	0.062408	-0.007172	-0.036163	-0.019684	-0.11856	0.020905	-0.11658	0.013123	-0.006866	0.001068	0.025635	0.03479	-0.006104	-0.007019	0.059509	0.040741	-0.19775	0.13458	0.34637	0.042419	-0.080261	0.14358	-0.46371	-0.018311	0.30533	-0.000305	0.075378	0.082092	-0.004272	-0.008698
14.217	-0.024567	0.019836	-0.022736	0.003662	-0.073395	-0.022125	-0.051727	0.014801	0.029602	0.00473	-0.009918	-0.000153	0.008545	0.040741	0.001373	0.006714	0.011902	0.10284	-0.010986	0.28214	-0.050964	0.10086	0.14374	0.36194	-0.85495	-0.021973	0.50568	-0.005341	-0.007019	0.13641	-0.000305	-0.012207
14.218	-0.00824	0.032196	-0.024567	0.005341	-0.046539	-0.024872	-0.002899	0.002289	0.17654	0.003815	0.001221	0.003357	-0.001678	0.031281	0.005493	-0.002441	0.015259	0.13977	0.24033	0.20859	-0.53223	0.003662	0.21988	0.25574	-0.6102	-0.021667	0.49042	-0.001373	-0.027771	0.020752	-0.002747	-0.011902
14.219	-0.003204	0.007172	0.009918	0.010376	0.054321	-0.008698	-0.036316	-0.00412	0.28015	-0.003967	0.012665	-0.000153	-0.003967	0.049133	-0.009918	0.00412	0.046082	0.032959	-0.00061	0.070801	-0.62363	-0.072174	0.057678	0.021667	-0.39002	-0.011597	0.22415	-0.000153	0.026398	0.15533	-0.002899	-0.013123
14.22	-0.001984	0.012665	-0.020752	0.00824	0.032654	0.016327	0.005493	-0.019379	0.27863	-0.00885	0.011749	-0.004883	0.037384	0.048981	-0.011902	0.005188	0.027618	0.015259	0.20157	0.044556	-0.354	-0.018768	0.022736	-0.14923	-0.32928	0.001678	0.44678	-0.00412	0.13962	0.032806	-0.00061	-0.011902
14.221	-0.00946	0.0177	0.040741	-0.007782	0.007477	0.000763	0.040588	-0.008545	0.27649	-0.01358	0.002747	0.010681	0.095978	0.043488	0.004272	-0.011749	-0.000153	0.11032	0.11932	0.063477	0.39032	0.097504	-0.024872	-0.28305	-0.24292	0.004272	0	-0.003967	0.18356	-0.16098	-0.001068	-0.00824
14.222	-0.021667	0.005646	-0.049744	-0.018921	-0.05127	0.002747	0.016937	-0.013275	0.22919	-0.028992	-0.003662	0.002441	0.029449	0.04303	-0.00061	0.007629	-0.002747	0.083618	0.014648	0.043182	0.085144	0.084229	-0.07309	-0.31067	-0.037231	0.000763	0.20554	-0.004578	-0.06424	0.016479	-0.004578	-0.009918
14.223	-0.014648	0.029144	-0.13626	0.009918	-0.078888	-0.006256	0.030212	-0.018005	0.1178	-0.028687	0.024567	0.002136	0.001678	0.019836	-0.045624	0.000916	0.005798	0.10956	-0.059357	0.028381	0.024109	-0.011292	-0.053864	-0.18036	0.17029	0.000916	-0.18509	-0.004883	-0.12039	0.084381	-0.001831	-0.014038
14.224	0.003662	0.057068	0.023651	0.018158	-0.045776	-0.051727	0.02121	-0.014343	-0.024414	-0.006714	-0.056	0.007324	0.063171	0.00412	-0.048828	0.003967	-0.01709	0.076752	-0.38452	-0.006409	0.042572	-0.023499	-0.14023	-0.007629	0.26657	0	-0.67429	-0.002441	0.011749	-0.028076	-0.004425	-0.005951
14.225	0.008545	0.023956	-0.027618	0.02594	0.057983	-0.054474	0.041199	-0.00473	-0.17303	-0.004272	-0.027466	0.003815	-0.057983	0.009766	-0.02533	-0.01236	-0.0354	0.093689	-0.49332	-0.043182	-0.042114	-0.016174	-0.072327	0.18921	0.11276	0.002747	-0.79514	-0.000153	0.038757	-0.13046	-0.00061	-0.001373
14.226	0.010834	0.031738	-0.084381	0.018616	0.087128	-0.04303	0.044556	-0.005035	-0.31708	-0.027313	0.016937	0.006409	-0.042419	0.002899	-0.0177	0.023956	0.006866	0.082092	-0.15182	0.028687	0.084839	-0.10666	-0.010071	0.093231	0.16266	0.005798	-0.25864	-0.001984	-0.002136	-0.23148	-0.001373	0.001678
14.227	0.025482	0.041504	-0.04715	0.002289	0.067444	-0.04303	-0.027313	-0.010223	-0.26535	-0.036926	-0.015106	0.001221	-0.001984	0.061798	0.012817	0.002136	0.052185	0.099792	0.55328	0.017242	-0.075989	-0.083618	0.066986	-0.077667	0.31525	0.007782	-0.11993	0.001068	-0.047913	-0.16068	-0.001526	0.001373
14.228	0.022125	0.027008	0.025635	-0.002594	0.083923	-0.00946	-0.017548	-0.006866	-0.17685	-0.018768	-0.002899	-0.001678	-0.02533	0.080261	0.039825	0.012207	0.043335	0.008392	0.43198	-0.079956	-0.080261	-0.0914	0.0354	0.079498	0.29388	0.003204	0.12726	-0.00473	-0.12543	0.007324	0.009155	-0.000458
14.229	0.01236	-0.012665	0.078735	0.019836	0.085602	0.088959	0.010223	-0.004425	-0.072784	0.023041	-0.008545	0.003815	0.038605	0.037231	0.036469	-0.000763	0.016327	-0.079651	-0.010376	-0.17425	0.18295	-0.012054	0.001831	0.20935	0.2832	0.00061	0.14893	-0.005035	-0.092316	0.045013	-0.003357	-0.001984
14.23	-0.02182	-0.020905	0.12451	0.003204	0.057678	0.14877	0.031128	0.016174	-0.049286	0.007782	-0.003204	-0.001984	0.10071	0.002136	0.023651	0.007172	-0.010071	-0.007172	-0.00061	-0.12848	-0.003815	0.063477	-0.15411	0.00351	0.20828	0.004425	-0.14328	-0.001984	-0.038147	0.040436	-0.00351	0.000763
14.231	-0.037537	-0.028839	0.007172	0.009918	-0.026245	0.14526	0.061951	0.016937	-0.036621	-0.005951	-0.019531	0.020447	0.066833	0.006561	0.009766	-0.000305	-0.026093	-0.041199	0.24399	-0.023193	-0.061493	0.10559	-0.20538	-0.20874	0.028839	0.011902	-0.11719	-0.001068	0.084076	-0.05661	-0.001526	-0.00061
14.232	-0.044403	0.005341	-0.000153	0.012665	-0.12756	0.080109	0.075226	0.014191	-0.031281	-0.005951	-0.001984	0.022888	0.068359	-0.005798	-0.008545	-0.003815	-0.031586	0.013275	0.35355	0.070648	-0.013885	0.10773	-0.14511	-0.079041	-0.13382	0.006104	-0.20187	-0.000763	-0.082092	-0.088654	-0.002747	0.000305
14.233	-0.030212	-0.006866	-0.023804	0.007935	-0.17838	-0.037994	0.056152	0.018311	-0.007782	-0.022888	-0.00412	0.007019	0.095825	-0.00061	-0.004272	0.014648	-0.063477	0.000305	0.026398	0.13687	0.007019	0.16357	-0.24735	0.05661	-0.44678	-0.000763	-0.28793	-0.00061	-0.14053	-0.080261	-0.000916	-0.007477
14.234	-0.014038	-0.009003	-0.003967	0.004883	-0.059052	-0.16998	-0.011292	0.012512	0.020447	-0.040131	-0.003052	0.003815	-0.00061	0.005798	-0.001373	-0.002899	-0.033112	-0.020294	-0.10712	0.053406	0.041504	0.23193	-0.18692	0.12116	-0.41855	-0.007782	-0.1474	-0.003204	-0.1207	0.042877	0.00061	-0.00885
14.235	-0.003204	0.010834	0.013123	0.02182	0.051422	-0.16724	0.023804	0.000305	0.022888	-0.009155	0.00351	-0.004425	-0.16083	0.002747	0.017853	0.00885	0.002747	0.055542	0.060272	-0.018005	-0.028992	0.17425	0.041656	0.10193	-0.31921	-0.005493	-0.12085	-0.002136	0.051117	0.10223	-0.003052	-0.011597
